<svg width="76" height="17" viewBox="0 0 76 17" fill="none" xmlns="http://www.w3.org/2000/svg">
<path d="M16.9199 3.97661C19.2177 3.97662 20.7324 5.79302 20.7324 8.59869C20.7324 11.4122 19.2266 13.2198 16.9541 13.2198C15.7795 13.2812 14.6731 12.666 14.1055 11.6358H14.0625V16.1202H12.2041V4.07134H14.0029V5.5772H14.0371C14.6299 4.55345 15.7375 3.93848 16.9199 3.97661ZM26.8847 3.97662C29.1826 3.97662 30.6973 5.79302 30.6973 8.59869C30.6973 11.4122 29.1914 13.2198 26.9189 13.2198C25.7443 13.2812 24.6379 12.666 24.0703 11.6358H24.0273V16.1202H22.1689V4.07134H23.9677V5.5772H24.0019C24.5947 4.55345 25.7023 3.93848 26.8847 3.97662ZM40.2266 0.5C42.8506 0.5 44.6494 1.97168 44.71 4.11426H42.834C42.7217 2.875 41.6972 2.12696 40.2002 2.12696C38.7031 2.12696 37.6787 2.8838 37.6787 3.98536C37.6787 4.86329 38.333 5.37989 39.9336 5.77536L41.3017 6.1113C43.8496 6.71384 44.9082 7.7373 44.9082 9.55368C44.9082 11.8769 43.0576 13.332 40.1142 13.332C37.3603 13.332 35.501 11.9111 35.3808 9.665L37.2832 9.66509C37.4209 10.8965 38.6172 11.7051 40.2519 11.7051C41.8184 11.7051 42.9453 10.8965 42.9453 9.78614C42.9453 8.82227 42.2656 8.24514 40.6562 7.84962L39.0469 7.46192C36.7666 6.91114 35.708 5.84473 35.708 4.11426C35.708 1.97168 37.5752 0.5 40.2266 0.5ZM55.9317 3.96002C58.5567 3.96002 60.2266 5.75002 60.2266 8.59869C60.2266 11.4551 58.5655 13.2374 55.9317 13.2374C53.2988 13.2374 51.6377 11.4551 51.6377 8.59869C51.6377 5.75006 53.3155 3.96002 55.9317 3.96002ZM70.9805 3.96001C73.4854 3.96001 75.0606 5.68071 75.0606 8.42583V9.06255H68.666V9.17485C68.6063 9.84888 68.8391 10.5161 69.3051 11.0067C69.771 11.4974 70.4254 11.7642 71.1016 11.7393C72.0034 11.8238 72.8537 11.3059 73.1924 10.4659L74.957 10.4659C74.707 12.1094 73.1064 13.2374 71.0586 13.2374C68.4248 13.2374 66.79 11.4727 66.79 8.64165C66.79 5.80181 68.4336 3.96001 70.9805 3.96001ZM48.9189 1.92876V4.07134H50.6406V5.54302H48.9189V10.5342C48.9189 11.3096 49.2637 11.6709 50.0205 11.6709C50.2249 11.6674 50.429 11.653 50.6318 11.6279V13.0908C50.2916 13.1544 49.9457 13.1832 49.5996 13.1768C47.7666 13.1768 47.0518 12.4883 47.0518 10.7324V5.54302H45.7354V4.07134H47.0517V1.92876H48.9189ZM6.5664 0.70706L11.0498 13.1251H9.01073L7.875 9.76861H3.1416L2.00488 13.1251H0L4.4834 0.70706H6.5664ZM65.752 3.9766C65.9661 3.97585 66.1797 3.99911 66.3887 4.04594V5.78422C66.1183 5.7016 65.8363 5.66367 65.5537 5.67192C65.0074 5.64975 64.4786 5.86749 64.1063 6.26797C63.734 6.66844 63.5553 7.21163 63.6172 7.75492V13.125H61.7588V4.07134H63.5312V5.61234H63.5742C63.8214 4.62033 64.7304 3.93759 65.752 3.9766ZM55.9317 5.49127C54.4258 5.49127 53.5313 6.65338 53.5313 8.59869C53.5313 10.5606 54.4258 11.7051 55.9317 11.7051C57.4375 11.7051 58.333 10.5606 58.333 8.59869C58.333 6.64459 57.4375 5.49127 55.9317 5.49127ZM16.4297 5.5606C15.0098 5.5606 14.0547 6.79107 14.0547 8.59869C14.0547 10.4229 15.0098 11.6446 16.4297 11.6446C17.875 11.6446 18.8223 10.4483 18.8223 8.59869C18.8223 6.76569 17.875 5.5606 16.4297 5.5606ZM26.3945 5.5606C24.9746 5.5606 24.0195 6.79107 24.0195 8.59869C24.0195 10.4229 24.9746 11.6446 26.3945 11.6446C27.8398 11.6446 28.7871 10.4483 28.7871 8.59869C28.7871 6.76569 27.8398 5.5606 26.3945 5.5606ZM5.53422 2.77251H5.48246L3.63183 8.21978H7.38383L5.53422 2.77251ZM70.9805 5.46587C70.3692 5.46222 69.7818 5.7029 69.3489 6.13439C68.9159 6.56589 68.6732 7.15246 68.6748 7.76373H73.2012C73.2349 7.15806 73.0144 6.56578 72.5929 6.12959C72.1713 5.6934 71.5869 5.45284 70.9805 5.46587Z" fill="black"/>
</svg>
