<svg width="19" height="17" viewBox="0 0 19 17" fill="none" xmlns="http://www.w3.org/2000/svg">
<path fill-rule="evenodd" clip-rule="evenodd" d="M15.7689 6.58042C15.7907 4.88395 16.6801 3.31693 18.1254 2.42836C17.2095 1.12025 15.7304 0.320618 14.1343 0.27068C12.455 0.09442 10.8271 1.27551 9.97137 1.27551C9.0991 1.27551 7.7816 0.28818 6.36287 0.31737C4.49619 0.377678 2.79813 1.41327 1.88995 3.04524C-0.0440497 6.39366 1.39854 11.3147 3.25115 14.0213C4.17805 15.3467 5.26133 16.8271 6.67878 16.7746C8.06584 16.7171 8.58388 15.8901 10.2582 15.8901C11.9169 15.8901 12.403 16.7746 13.8492 16.7412C15.3376 16.7171 16.2753 15.41 17.1697 14.0721C17.8357 13.1277 18.3481 12.084 18.6881 10.9796C16.9204 10.2319 15.7709 8.49977 15.7689 6.58042Z" fill="black"/>
</svg>
