<svg width="11" height="10" viewBox="0 0 11 10" fill="none" xmlns="http://www.w3.org/2000/svg">
<path d="M4.76075 9.5446C4.93571 9.71125 5.21264 9.70452 5.37929 9.52956C5.54594 9.3546 5.5392 9.07768 5.36425 8.91103L1.71759 5.4375L10.3125 5.4375C10.5541 5.4375 10.75 5.24162 10.75 5C10.75 4.75838 10.5541 4.5625 10.3125 4.5625L1.71753 4.5625L5.36425 1.08892C5.5392 0.922271 5.54594 0.645343 5.37929 0.470386C5.21264 0.295429 4.93571 0.288695 4.76075 0.455346L0.433042 4.57759C0.334501 4.67145 0.276196 4.79118 0.258125 4.91564C0.252794 4.94294 0.25 4.97114 0.25 5C0.25 5.02891 0.252804 5.05717 0.258157 5.08452C0.276263 5.20891 0.334557 5.32855 0.433042 5.42236L4.76075 9.5446Z" fill="#333333"/>
</svg>
