<svg width="68" height="68" viewBox="0 0 68 68" fill="none" xmlns="http://www.w3.org/2000/svg">
<path d="M34 0.666687C52.4095 0.666687 67.3333 15.5905 67.3333 34C67.3333 52.4095 52.4095 67.3334 34 67.3334C15.5905 67.3334 0.666626 52.4095 0.666626 34C0.666626 15.5905 15.5905 0.666687 34 0.666687ZM34 5.66669C18.3519 5.66669 5.66663 18.352 5.66663 34C5.66663 49.6481 18.3519 62.3334 34 62.3334C49.648 62.3334 62.3333 49.6481 62.3333 34C62.3333 18.352 49.648 5.66669 34 5.66669ZM29.8333 38.7978L44.7322 23.8989C45.7085 22.9226 47.2914 22.9226 48.2677 23.8989C49.1553 24.7865 49.236 26.1754 48.5098 27.1541L48.2677 27.4345L31.6011 44.1011C30.7135 44.9887 29.3246 45.0694 28.3459 44.3432L28.0655 44.1011L19.7322 35.7678C18.7559 34.7915 18.7559 33.2086 19.7322 32.2323C20.6197 31.3447 22.0086 31.264 22.9873 31.9902L23.2677 32.2323L29.8333 38.7978L44.7322 23.8989L29.8333 38.7978Z" fill="#0039FF"/>
</svg>
