<svg width="85" height="18" viewBox="0 0 85 18" fill="none" xmlns="http://www.w3.org/2000/svg">
<path fill-rule="evenodd" clip-rule="evenodd" d="M65.894 12.953H67.76V0.452H65.894V12.953ZM82.701 4.955L80.562 10.375H80.498L78.278 4.955H76.268L79.597 12.53L77.699 16.744H79.646L84.776 4.955H82.701ZM72.119 11.533C71.507 11.533 70.655 11.228 70.655 10.472C70.655 9.507 71.717 9.137 72.633 9.137C73.454 9.137 73.839 9.314 74.338 9.555C74.193 10.713 73.196 11.533 72.119 11.533ZM72.344 4.682C70.993 4.682 69.594 5.277 69.015 6.596L70.671 7.287C71.025 6.596 71.684 6.37 72.376 6.37C73.341 6.37 74.322 6.949 74.338 7.979V8.107C74 7.914 73.277 7.625 72.392 7.625C70.607 7.625 68.789 8.606 68.789 10.439C68.789 12.112 70.253 13.19 71.893 13.19C73.148 13.19 73.839 12.627 74.274 11.967H74.338V12.932H76.139V8.14C76.139 5.92 74.483 4.682 72.344 4.682ZM60.812 6.477H58.158V2.192H60.812C62.207 2.192 62.999 3.347 62.999 4.334C62.999 5.303 62.207 6.477 60.812 6.477ZM60.764 0.452H56.293V12.953H58.158V8.217H60.764C62.832 8.217 64.865 6.719 64.865 4.334C64.865 1.949 62.832 0.452 60.764 0.452ZM36.383 11.535C35.094 11.535 34.015 10.456 34.015 8.974C34.015 7.476 35.094 6.38 36.383 6.38C37.656 6.38 38.654 7.476 38.654 8.974C38.654 10.456 37.656 11.535 36.383 11.535ZM38.525 5.655H38.461C38.042 5.156 37.237 4.705 36.222 4.705C34.095 4.705 32.146 6.573 32.146 8.974C32.146 11.358 34.095 13.211 36.222 13.211C37.237 13.211 38.042 12.76 38.461 12.244H38.525V12.856C38.525 14.484 37.656 15.354 36.254 15.354C35.11 15.354 34.401 14.532 34.111 13.839L32.484 14.516C32.951 15.644 34.192 17.029 36.254 17.029C38.445 17.029 40.298 15.74 40.298 12.599V4.962H38.525V5.655ZM41.587 12.953H43.456V0.451H41.587V12.953ZM46.21 8.829C46.162 7.186 47.483 6.348 48.433 6.348C49.175 6.348 49.803 6.718 50.012 7.25L46.21 8.829ZM52.01 7.411C51.656 6.461 50.576 4.705 48.369 4.705C46.178 4.705 44.358 6.428 44.358 8.958C44.358 11.342 46.162 13.211 48.578 13.211C50.528 13.211 51.656 12.019 52.123 11.326L50.673 10.359C50.19 11.068 49.529 11.535 48.578 11.535C47.628 11.535 46.951 11.1 46.516 10.247L52.203 7.895L52.01 7.411ZM6.702 6.01V7.814H11.019C10.89 8.829 10.552 9.57 10.037 10.086C9.408 10.714 8.425 11.406 6.702 11.406C4.044 11.406 1.965 9.264 1.965 6.606C1.965 3.947 4.044 1.805 6.702 1.805C8.136 1.805 9.183 2.369 9.956 3.094L11.229 1.821C10.149 0.79 8.716 0 6.702 0C3.061 0 0 2.965 0 6.606C0 10.247 3.061 13.211 6.702 13.211C8.667 13.211 10.149 12.567 11.309 11.358C12.501 10.166 12.872 8.491 12.872 7.137C12.872 6.718 12.84 6.332 12.775 6.01H6.702ZM17.781 11.535C16.492 11.535 15.38 10.472 15.38 8.958C15.38 7.427 16.492 6.38 17.781 6.38C19.069 6.38 20.181 7.427 20.181 8.958C20.181 10.472 19.069 11.535 17.781 11.535ZM17.781 4.705C15.428 4.705 13.511 6.493 13.511 8.958C13.511 11.406 15.428 13.211 17.781 13.211C20.133 13.211 22.05 11.406 22.05 8.958C22.05 6.493 20.133 4.705 17.781 4.705ZM27.094 11.535C25.805 11.535 24.693 10.472 24.693 8.958C24.693 7.427 25.805 6.38 27.094 6.38C28.383 6.38 29.494 7.427 29.494 8.958C29.494 10.472 28.383 11.535 27.094 11.535ZM27.094 4.705C24.742 4.705 22.825 6.493 22.825 8.958C22.825 11.406 24.742 13.211 27.094 13.211C29.446 13.211 31.363 11.406 31.363 8.958C31.363 6.493 29.446 4.705 27.094 4.705Z" fill="black"/>
</svg>
