<svg width="18" height="18" viewBox="0 0 18 18" fill="none" xmlns="http://www.w3.org/2000/svg">
<path d="M13.1667 10.25C13.1667 9.5596 12.607 8.99996 11.9167 8.99996H6.08335C5.393 8.99996 4.83335 9.5596 4.83335 10.25V10.6666C4.83335 12.3095 6.38295 14 9.00002 14C11.6171 14 13.1667 12.3095 13.1667 10.6666V10.25ZM11.2917 5.87496C11.2917 4.60931 10.2657 3.58329 9.00002 3.58329C7.73437 3.58329 6.70835 4.60931 6.70835 5.87496C6.70835 7.14061 7.73437 8.16663 9.00002 8.16663C10.2657 8.16663 11.2917 7.14061 11.2917 5.87496ZM17.3334 8.99996C17.3334 13.6023 13.6024 17.3333 9.00002 17.3333C4.39765 17.3333 0.666687 13.6023 0.666687 8.99996C0.666687 4.39759 4.39765 0.666626 9.00002 0.666626C13.6024 0.666626 17.3334 4.39759 17.3334 8.99996ZM16.0834 8.99996C16.0834 5.08794 12.912 1.91663 9.00002 1.91663C5.088 1.91663 1.91669 5.08794 1.91669 8.99996C1.91669 12.912 5.088 16.0833 9.00002 16.0833C12.912 16.0833 16.0834 12.912 16.0834 8.99996Z" fill="#333333"/>
</svg>
