<svg width="16" height="16" viewBox="0 0 16 16" fill="none" xmlns="http://www.w3.org/2000/svg">
<path d="M5.50077 8C5.50077 6.61934 6.61971 5.4998 8.00037 5.4998C9.38103 5.4998 10.5006 6.61934 10.5006 8C10.5006 9.38066 9.38103 10.5002 8.00037 10.5002C6.61971 10.5002 5.50077 9.38066 5.50077 8ZM4.14921 8C4.14921 10.127 5.87337 11.8512 8.00037 11.8512C10.1274 11.8512 11.8515 10.127 11.8515 8C11.8515 5.873 10.1274 4.14884 8.00037 4.14884C5.87337 4.14884 4.14921 5.873 4.14921 8ZM11.104 3.99614C11.1039 4.17414 11.1566 4.34817 11.2555 4.49621C11.3543 4.64426 11.4948 4.75967 11.6592 4.82785C11.8237 4.89604 12.0046 4.91393 12.1792 4.87928C12.3538 4.84462 12.5142 4.75897 12.6401 4.63315C12.766 4.50733 12.8518 4.347 12.8866 4.17243C12.9214 3.99787 12.9037 3.8169 12.8356 3.65242C12.7676 3.48794 12.6523 3.34733 12.5043 3.24838C12.3563 3.14943 12.1823 3.09657 12.0043 3.0965H12.004C11.7654 3.09661 11.5366 3.19142 11.3678 3.3601C11.1991 3.52878 11.1042 3.75754 11.104 3.99614ZM4.97037 14.1048C4.23915 14.0715 3.84171 13.9497 3.57759 13.8468C3.22743 13.7105 2.97759 13.5481 2.71491 13.2858C2.45223 13.0235 2.28963 12.7739 2.15391 12.4237C2.05095 12.1597 1.92915 11.7622 1.89591 11.031C1.85955 10.2404 1.85229 10.0029 1.85229 8.00006C1.85229 5.9972 1.86015 5.76038 1.89591 4.96916C1.92921 4.23794 2.05191 3.84116 2.15391 3.57638C2.29023 3.22622 2.45259 2.97638 2.71491 2.7137C2.97723 2.45102 3.22683 2.28842 3.57759 2.1527C3.84159 2.04974 4.23915 1.92794 4.97037 1.8947C5.76093 1.85834 5.99841 1.85108 8.00037 1.85108C10.0023 1.85108 10.24 1.85894 11.0313 1.8947C11.7625 1.928 12.1593 2.0507 12.424 2.1527C12.7742 2.28842 13.024 2.45138 13.2867 2.7137C13.5494 2.97602 13.7114 3.22622 13.8477 3.57638C13.9507 3.84038 14.0725 4.23794 14.1057 4.96916C14.1421 5.76038 14.1493 5.9972 14.1493 8.00006C14.1493 10.0029 14.1421 10.2397 14.1057 11.031C14.0724 11.7622 13.95 12.1596 13.8477 12.4237C13.7114 12.7739 13.549 13.0237 13.2867 13.2858C13.0244 13.5479 12.7742 13.7105 12.424 13.8468C12.16 13.9498 11.7625 14.0716 11.0313 14.1048C10.2407 14.1412 10.0032 14.1484 8.00037 14.1484C5.99751 14.1484 5.76069 14.1412 4.97037 14.1048ZM4.90827 0.54542C4.10985 0.58178 3.56427 0.70838 3.08781 0.89378C2.59437 1.08524 2.17665 1.3421 1.75923 1.75886C1.34181 2.17562 1.08561 2.594 0.894146 3.08744C0.708746 3.5642 0.582146 4.10948 0.545786 4.9079C0.508826 5.70758 0.500366 5.96324 0.500366 8C0.500366 10.0368 0.508826 10.2924 0.545786 11.0921C0.582146 11.8906 0.708746 12.4358 0.894146 12.9126C1.08561 13.4057 1.34187 13.8246 1.75923 14.2411C2.17659 14.6577 2.59437 14.9142 3.08781 15.1062C3.56517 15.2916 4.10985 15.4182 4.90827 15.4546C5.70837 15.4909 5.96361 15.5 8.00037 15.5C10.0371 15.5 10.2928 15.4915 11.0925 15.4546C11.8909 15.4182 12.4362 15.2916 12.9129 15.1062C13.4061 14.9142 13.8241 14.6579 14.2415 14.2411C14.6589 13.8244 14.9146 13.4057 15.1066 12.9126C15.292 12.4358 15.4192 11.8905 15.4549 11.0921C15.4913 10.2918 15.4998 10.0368 15.4998 8C15.4998 5.96324 15.4913 5.70758 15.4549 4.9079C15.4186 4.10942 15.292 3.5639 15.1066 3.08744C14.9146 2.5943 14.6583 2.17628 14.2415 1.75886C13.8247 1.34144 13.4061 1.08524 12.9135 0.89378C12.4362 0.70838 11.8909 0.58118 11.0931 0.54542C10.2934 0.50906 10.0377 0.5 8.00097 0.5C5.96421 0.5 5.70837 0.50846 4.90827 0.54542Z" fill="white"/>
</svg>
