<svg width="100" height="28" viewBox="0 0 100 28" fill="none" xmlns="http://www.w3.org/2000/svg">
<path d="M26.6489 14.0562C26.6489 5.13874 20.8008 0.291504 13.4009 0.291504C5.92528 0.291504 0.134038 5.13874 0.115112 14.0562C0.134038 22.9181 5.92528 27.8208 13.4009 27.8208C20.8008 27.8208 26.6489 22.9736 26.6489 14.0562ZM7.53396 14.0562C7.53396 9.11644 9.61578 6.4338 13.4009 6.4338C17.1482 6.4338 19.2489 9.11644 19.23 14.0562C19.2489 18.9774 17.1482 21.6601 13.4009 21.6785C9.61578 21.6601 7.53396 18.9774 7.53396 14.0562ZM37.3987 16.0913C37.3987 14.0377 38.6099 12.7796 40.5024 12.7981C42.4328 12.7796 43.5683 14.0192 43.5305 16.0913V27.4508H50.6843V14.6482C50.7223 10.2265 47.8834 7.09983 43.5305 7.09983C40.5024 7.09983 38.1367 8.63541 37.2471 11.133H37.02V7.35884H30.2446V27.4508H37.3987V16.0913ZM66.5062 7.35884H62.9103V2.54861H55.7564V7.35884H53.1068V12.4281H55.7564V21.7156C55.6997 25.8968 58.3871 27.7284 63.3646 27.7467C64.9733 27.7284 66.1088 27.6173 66.7712 27.4878V22.2705C65.9574 22.3446 64.8975 22.4001 64.3865 22.3815C63.3836 22.326 62.9103 21.956 62.9103 21.0126V12.4281H66.5062V7.35884ZM79.1485 27.8208C85.7725 27.8208 89.728 23.6397 89.709 17.4603C89.728 11.281 85.7725 7.09983 79.1485 7.09983C72.5247 7.09983 68.569 11.281 68.5502 17.4603C68.569 23.6397 72.5247 27.8208 79.1485 27.8208ZM75.8555 17.4233C75.8745 14.2042 77.0857 12.1876 79.1865 12.2061C81.1925 12.1876 82.4227 14.2042 82.4037 17.4233C82.4227 20.6054 81.1925 22.6221 79.1865 22.6405C77.0857 22.6221 75.8745 20.6054 75.8555 17.4233ZM99.9667 0.661522H92.8128V27.4508H99.9667V0.661522Z" fill="black"/>
</svg>
